<svg width="486" height="486" viewBox="0 0 486 486" fill="none" xmlns="http://www.w3.org/2000/svg">
<path fill-rule="evenodd" clip-rule="evenodd" d="M52.7865 445.128V378.276H27.9653C12.5761 378.276 0 393.334 0 411.702C0 430.069 12.5761 445.128 27.9653 445.128H52.7865Z" fill="#14696C"/>
<path fill-rule="evenodd" clip-rule="evenodd" d="M458.035 445.128C473.424 445.128 486 430.069 486 411.702C486 393.334 473.424 378.276 458.035 378.276H433.214V445.128H458.035Z" fill="#14696C"/>
<path fill-rule="evenodd" clip-rule="evenodd" d="M48.6496 445.128C48.6496 467.467 66.8519 485.835 89.3564 485.835H396.478C418.817 485.835 437.185 467.632 437.185 445.128C437.185 340.878 437.185 236.464 437.185 132.214L304.97 0H89.191C66.8519 0 48.4841 18.2022 48.4841 40.7068C48.6496 175.403 48.6496 310.431 48.6496 445.128Z" fill="#0FB1B7"/>
<path fill-rule="evenodd" clip-rule="evenodd" d="M437.35 132.214L305.136 0.165405V87.0398C305.136 112.026 325.489 132.38 350.476 132.38L437.35 132.214Z" fill="#147E82"/>
<path fill-rule="evenodd" clip-rule="evenodd" d="M486 417.328V256.817C486 240.27 472.431 226.866 456.049 226.866H29.951C13.4035 226.866 0 240.435 0 256.817V417.328C0 401.939 12.5761 389.363 27.9653 389.363H457.869C473.258 389.363 486 401.773 486 417.328Z" fill="#0CA3A9"/>
<path d="M91.5075 175.403C88.529 175.403 86.0469 177.886 86.0469 180.864C86.0469 183.843 88.529 186.325 91.5075 186.325H394.823C397.802 186.325 400.284 183.843 400.284 180.864C400.284 177.886 397.802 175.403 394.823 175.403H91.5075Z" fill="#47D6DB"/>
<path d="M91.5075 120.797C88.529 120.797 86.0469 123.279 86.0469 126.257C86.0469 129.236 88.529 131.718 91.5075 131.718H268.731C271.71 131.718 274.192 129.236 274.192 126.257C274.192 123.279 271.71 120.797 268.731 120.797H91.5075Z" fill="#47D6DB"/>
<path d="M98.2922 450.092C95.3137 450.092 92.8315 452.574 92.8315 455.553C92.8315 458.531 95.3137 461.013 98.2922 461.013H275.516C278.494 461.013 280.977 458.531 280.977 455.553C280.977 452.574 278.494 450.092 275.516 450.092H98.2922Z" fill="#47D6DB"/>
<path d="M91.5075 66.1899C88.529 66.1899 86.0469 68.6721 86.0469 71.6506C86.0469 74.6292 88.529 77.1113 91.5075 77.1113H268.731C271.71 77.1113 274.192 74.6292 274.192 71.6506C274.192 68.6721 271.71 66.1899 268.731 66.1899H91.5075Z" fill="#47D6DB"/>
<path d="M98.1267 405.414C95.1481 405.414 92.666 407.896 92.666 410.874C92.666 413.853 95.1481 416.335 98.1267 416.335H275.35C278.329 416.335 280.811 413.853 280.811 410.874C280.811 407.896 278.329 405.414 275.35 405.414H98.1267Z" fill="#47D6DB"/>
<path d="M107.803 290.76V271.505H120.327V274.429H111.291V279.656H119.678V282.58H111.291V287.836H120.402V290.76H107.803ZM127.891 291.051C126.975 291.051 126.151 290.889 125.418 290.563C124.691 290.23 124.114 289.741 123.688 289.096C123.268 288.45 123.058 287.654 123.058 286.708C123.058 285.893 123.208 285.219 123.509 284.686C123.81 284.154 124.221 283.727 124.741 283.408C125.261 283.088 125.847 282.847 126.499 282.684C127.157 282.514 127.837 282.392 128.539 282.317C129.386 282.229 130.072 282.151 130.598 282.082C131.125 282.007 131.507 281.894 131.745 281.744C131.99 281.587 132.112 281.345 132.112 281.02V280.963C132.112 280.255 131.902 279.706 131.482 279.318C131.062 278.929 130.457 278.735 129.668 278.735C128.834 278.735 128.173 278.917 127.684 279.28C127.201 279.644 126.875 280.073 126.706 280.568L123.528 280.117C123.779 279.239 124.192 278.506 124.769 277.917C125.346 277.321 126.051 276.876 126.885 276.582C127.718 276.281 128.64 276.131 129.649 276.131C130.345 276.131 131.037 276.212 131.727 276.375C132.416 276.538 133.046 276.807 133.616 277.184C134.187 277.553 134.644 278.058 134.989 278.697C135.34 279.337 135.516 280.136 135.516 281.095V290.76H132.244V288.776H132.131C131.924 289.177 131.633 289.553 131.257 289.904C130.887 290.249 130.42 290.528 129.856 290.741C129.298 290.948 128.643 291.051 127.891 291.051ZM128.774 288.551C129.458 288.551 130.05 288.416 130.551 288.146C131.053 287.87 131.438 287.507 131.708 287.056C131.984 286.604 132.121 286.112 132.121 285.58V283.878C132.015 283.966 131.833 284.047 131.576 284.122C131.325 284.197 131.043 284.263 130.73 284.32C130.417 284.376 130.106 284.426 129.799 284.47C129.492 284.514 129.226 284.552 129 284.583C128.492 284.652 128.038 284.765 127.637 284.921C127.236 285.078 126.919 285.297 126.687 285.58C126.455 285.855 126.339 286.213 126.339 286.651C126.339 287.278 126.568 287.751 127.026 288.071C127.483 288.391 128.066 288.551 128.774 288.551ZM150.352 280.136L147.249 280.474C147.162 280.161 147.008 279.866 146.789 279.59C146.575 279.315 146.287 279.092 145.924 278.923C145.56 278.754 145.115 278.669 144.589 278.669C143.88 278.669 143.285 278.823 142.802 279.13C142.326 279.437 142.091 279.835 142.097 280.324C142.091 280.744 142.244 281.085 142.558 281.349C142.877 281.612 143.404 281.828 144.137 281.997L146.601 282.524C147.967 282.818 148.982 283.285 149.647 283.925C150.317 284.564 150.656 285.401 150.662 286.435C150.656 287.344 150.39 288.146 149.863 288.842C149.343 289.531 148.619 290.071 147.691 290.459C146.764 290.848 145.698 291.042 144.495 291.042C142.727 291.042 141.304 290.672 140.226 289.933C139.148 289.187 138.505 288.149 138.299 286.821L141.617 286.501C141.768 287.153 142.088 287.645 142.577 287.977C143.065 288.309 143.702 288.475 144.485 288.475C145.294 288.475 145.942 288.309 146.431 287.977C146.926 287.645 147.174 287.234 147.174 286.745C147.174 286.332 147.014 285.99 146.695 285.721C146.381 285.451 145.892 285.244 145.228 285.1L142.765 284.583C141.379 284.295 140.354 283.809 139.69 283.126C139.026 282.436 138.697 281.565 138.703 280.512C138.697 279.622 138.938 278.851 139.427 278.199C139.922 277.541 140.608 277.033 141.486 276.676C142.37 276.312 143.388 276.131 144.542 276.131C146.234 276.131 147.566 276.491 148.537 277.212C149.515 277.933 150.12 278.907 150.352 280.136ZM155.584 296.176C155.12 296.176 154.691 296.138 154.296 296.063C153.907 295.994 153.597 295.912 153.365 295.818L154.155 293.167C154.65 293.311 155.092 293.38 155.481 293.374C155.869 293.367 156.211 293.245 156.506 293.007C156.806 292.775 157.06 292.387 157.267 291.841L157.559 291.061L152.322 276.319H155.932L159.26 287.225H159.411L162.748 276.319H166.368L160.586 292.509C160.316 293.273 159.959 293.928 159.514 294.474C159.069 295.025 158.524 295.445 157.878 295.734C157.239 296.028 156.474 296.176 155.584 296.176Z" fill="white"/>
<path d="M84.1289 341.998H67.0643V293.86H84.2699C89.1119 293.86 93.2801 294.824 96.7745 296.751C100.269 298.663 102.956 301.413 104.837 305.001C106.733 308.59 107.681 312.883 107.681 317.882C107.681 322.896 106.733 327.206 104.837 330.81C102.956 334.414 100.253 337.18 96.7275 339.107C93.2174 341.034 89.0179 341.998 84.1289 341.998ZM77.2419 333.278H83.7058C86.7144 333.278 89.2451 332.745 91.2979 331.679C93.3663 330.598 94.9176 328.929 95.9519 326.673C97.0017 324.401 97.5267 321.47 97.5267 317.882C97.5267 314.325 97.0017 311.418 95.9519 309.162C94.9176 306.905 93.3741 305.244 91.3214 304.179C89.2686 303.113 86.7379 302.58 83.7293 302.58H77.2419V333.278ZM131.344 342.703C127.693 342.703 124.536 341.928 121.872 340.376C119.224 338.809 117.179 336.631 115.737 333.842C114.296 331.037 113.575 327.785 113.575 324.087C113.575 320.358 114.296 317.098 115.737 314.309C117.179 311.504 119.224 309.326 121.872 307.775C124.536 306.208 127.693 305.424 131.344 305.424C134.996 305.424 138.145 306.208 140.793 307.775C143.457 309.326 145.51 311.504 146.952 314.309C148.393 317.098 149.114 320.358 149.114 324.087C149.114 327.785 148.393 331.037 146.952 333.842C145.51 336.631 143.457 338.809 140.793 340.376C138.145 341.928 134.996 342.703 131.344 342.703ZM131.391 334.947C133.052 334.947 134.439 334.476 135.552 333.536C136.664 332.58 137.503 331.28 138.067 329.634C138.647 327.989 138.937 326.117 138.937 324.017C138.937 321.917 138.647 320.044 138.067 318.399C137.503 316.754 136.664 315.453 135.552 314.497C134.439 313.541 133.052 313.063 131.391 313.063C129.715 313.063 128.304 313.541 127.161 314.497C126.032 315.453 125.178 316.754 124.599 318.399C124.034 320.044 123.752 321.917 123.752 324.017C123.752 326.117 124.034 327.989 124.599 329.634C125.178 331.28 126.032 332.58 127.161 333.536C128.304 334.476 129.715 334.947 131.391 334.947ZM171.938 342.703C168.239 342.703 165.058 341.92 162.395 340.353C159.746 338.77 157.709 336.576 156.283 333.771C154.873 330.966 154.168 327.738 154.168 324.087C154.168 320.389 154.881 317.145 156.307 314.356C157.748 311.551 159.793 309.365 162.442 307.798C165.09 306.216 168.239 305.424 171.891 305.424C175.04 305.424 177.798 305.996 180.164 307.14C182.53 308.284 184.403 309.89 185.782 311.959C187.161 314.027 187.921 316.456 188.062 319.245H178.613C178.347 317.443 177.641 315.994 176.498 314.897C175.369 313.784 173.888 313.228 172.055 313.228C170.504 313.228 169.148 313.651 167.989 314.497C166.845 315.328 165.952 316.542 165.309 318.141C164.667 319.739 164.345 321.674 164.345 323.946C164.345 326.25 164.659 328.208 165.286 329.822C165.928 331.436 166.829 332.667 167.989 333.513C169.148 334.359 170.504 334.782 172.055 334.782C173.199 334.782 174.225 334.547 175.134 334.077C176.059 333.607 176.819 332.925 177.414 332.032C178.025 331.123 178.425 330.034 178.613 328.765H188.062C187.905 331.523 187.153 333.952 185.805 336.051C184.474 338.135 182.632 339.765 180.282 340.94C177.931 342.116 175.15 342.703 171.938 342.703ZM210.785 342.703C207.134 342.703 203.977 341.928 201.313 340.376C198.665 338.809 196.62 336.631 195.178 333.842C193.736 331.037 193.016 327.785 193.016 324.087C193.016 320.358 193.736 317.098 195.178 314.309C196.62 311.504 198.665 309.326 201.313 307.775C203.977 306.208 207.134 305.424 210.785 305.424C214.436 305.424 217.586 306.208 220.234 307.775C222.898 309.326 224.951 311.504 226.393 314.309C227.834 317.098 228.555 320.358 228.555 324.087C228.555 327.785 227.834 331.037 226.393 333.842C224.951 336.631 222.898 338.809 220.234 340.376C217.586 341.928 214.436 342.703 210.785 342.703ZM210.832 334.947C212.493 334.947 213.88 334.476 214.993 333.536C216.105 332.58 216.944 331.28 217.508 329.634C218.088 327.989 218.377 326.117 218.377 324.017C218.377 321.917 218.088 320.044 217.508 318.399C216.944 316.754 216.105 315.453 214.993 314.497C213.88 313.541 212.493 313.063 210.832 313.063C209.156 313.063 207.745 313.541 206.601 314.497C205.473 315.453 204.619 316.754 204.039 318.399C203.475 320.044 203.193 321.917 203.193 324.017C203.193 326.117 203.475 327.989 204.039 329.634C204.619 331.28 205.473 332.58 206.601 333.536C207.745 334.476 209.156 334.947 210.832 334.947ZM235.066 341.998V305.894H244.609V312.264H245.032C245.784 310.149 247.038 308.48 248.793 307.258C250.548 306.035 252.648 305.424 255.092 305.424C257.568 305.424 259.676 306.043 261.415 307.281C263.154 308.503 264.314 310.164 264.894 312.264H265.27C266.006 310.196 267.338 308.543 269.266 307.305C271.209 306.051 273.504 305.424 276.153 305.424C279.522 305.424 282.256 306.498 284.356 308.644C286.471 310.776 287.529 313.8 287.529 317.717V341.998H277.539V319.692C277.539 317.686 277.007 316.182 275.941 315.179C274.876 314.176 273.544 313.675 271.945 313.675C270.128 313.675 268.709 314.254 267.691 315.414C266.672 316.558 266.163 318.07 266.163 319.95V341.998H256.456V319.48C256.456 317.71 255.946 316.299 254.928 315.249C253.925 314.2 252.601 313.675 250.955 313.675C249.843 313.675 248.84 313.957 247.947 314.521C247.069 315.069 246.372 315.845 245.855 316.848C245.338 317.835 245.079 318.995 245.079 320.326V341.998H235.066ZM311.892 342.703C308.178 342.703 304.982 341.951 302.302 340.447C299.638 338.927 297.585 336.78 296.144 334.006C294.702 331.217 293.981 327.919 293.981 324.111C293.981 320.397 294.702 317.138 296.144 314.333C297.585 311.528 299.615 309.342 302.231 307.775C304.864 306.208 307.951 305.424 311.492 305.424C313.874 305.424 316.092 305.808 318.144 306.576C320.213 307.328 322.015 308.464 323.55 309.984C325.102 311.504 326.308 313.416 327.17 315.719C328.032 318.007 328.463 320.687 328.463 323.758V326.508H297.977V320.303H319.038C319.038 318.861 318.724 317.584 318.097 316.472C317.471 315.359 316.601 314.489 315.488 313.863C314.391 313.22 313.114 312.899 311.657 312.899C310.137 312.899 308.789 313.251 307.614 313.957C306.455 314.646 305.546 315.578 304.888 316.754C304.229 317.913 303.892 319.206 303.877 320.632V326.532C303.877 328.318 304.206 329.862 304.864 331.162C305.538 332.463 306.486 333.466 307.708 334.171C308.93 334.876 310.38 335.229 312.057 335.229C313.169 335.229 314.188 335.072 315.112 334.759C316.037 334.445 316.828 333.975 317.486 333.348C318.144 332.721 318.646 331.954 318.99 331.045L328.251 331.656C327.781 333.881 326.818 335.824 325.36 337.485C323.919 339.13 322.054 340.415 319.766 341.34C317.494 342.249 314.869 342.703 311.892 342.703ZM345.01 321.126V341.998H334.997V305.894H344.54V312.264H344.963C345.763 310.164 347.102 308.503 348.983 307.281C350.863 306.043 353.143 305.424 355.823 305.424C358.33 305.424 360.516 305.973 362.381 307.07C364.245 308.167 365.695 309.734 366.729 311.771C367.763 313.792 368.28 316.205 368.28 319.01V341.998H358.267V320.797C358.283 318.587 357.719 316.863 356.575 315.625C355.431 314.372 353.856 313.745 351.85 313.745C350.503 313.745 349.312 314.035 348.278 314.615C347.259 315.195 346.46 316.041 345.88 317.153C345.316 318.25 345.026 319.574 345.01 321.126ZM395.376 305.894V313.416H373.634V305.894H395.376ZM378.57 297.245H388.583V330.904C388.583 331.828 388.724 332.549 389.006 333.066C389.288 333.568 389.68 333.92 390.181 334.124C390.698 334.328 391.294 334.429 391.968 334.429C392.438 334.429 392.908 334.39 393.378 334.312C393.848 334.218 394.208 334.147 394.459 334.1L396.034 341.551C395.532 341.708 394.827 341.888 393.918 342.092C393.01 342.311 391.905 342.445 390.604 342.492C388.191 342.586 386.076 342.264 384.258 341.528C382.456 340.791 381.053 339.648 380.051 338.096C379.048 336.545 378.554 334.586 378.57 332.22V297.245ZM431.485 316.19L422.318 316.754C422.162 315.97 421.825 315.265 421.308 314.638C420.791 313.996 420.109 313.487 419.263 313.11C418.432 312.719 417.437 312.523 416.278 312.523C414.726 312.523 413.418 312.852 412.352 313.51C411.287 314.152 410.754 315.014 410.754 316.096C410.754 316.957 411.099 317.686 411.788 318.282C412.478 318.877 413.661 319.355 415.337 319.715L421.872 321.032C425.382 321.752 427.999 322.912 429.722 324.51C431.446 326.109 432.308 328.208 432.308 330.81C432.308 333.176 431.611 335.252 430.216 337.038C428.837 338.825 426.941 340.22 424.528 341.222C422.13 342.21 419.365 342.703 416.231 342.703C411.451 342.703 407.643 341.708 404.807 339.718C401.987 337.712 400.333 334.986 399.848 331.538L409.696 331.021C409.994 332.479 410.715 333.591 411.859 334.359C413.003 335.111 414.468 335.487 416.254 335.487C418.009 335.487 419.419 335.15 420.485 334.476C421.566 333.787 422.115 332.902 422.13 331.82C422.115 330.912 421.731 330.167 420.979 329.587C420.226 328.992 419.067 328.538 417.5 328.224L411.247 326.978C407.722 326.273 405.097 325.051 403.373 323.312C401.665 321.572 400.811 319.355 400.811 316.66C400.811 314.341 401.438 312.343 402.692 310.666C403.961 308.989 405.739 307.696 408.027 306.788C410.331 305.879 413.026 305.424 416.113 305.424C420.673 305.424 424.261 306.388 426.878 308.315C429.511 310.243 431.047 312.868 431.485 316.19Z" fill="white"/>
</svg>
