<svg width="28" height="28" viewBox="0 0 28 28" fill="none" xmlns="http://www.w3.org/2000/svg">
<circle cx="14" cy="14" r="14" fill="#FFF9F9"/>
<path fill-rule="evenodd" clip-rule="evenodd" d="M14.5 5C9.23542 5 5 9.23542 5 14.5C5 18.6958 7.73125 22.2583 11.4917 23.525C11.9667 23.6042 12.125 23.3271 12.125 23.05C12.125 22.8125 12.125 22.2188 12.125 21.4271C9.47292 22.0208 8.91875 20.1604 8.91875 20.1604C8.48333 19.0521 7.85 18.775 7.85 18.775C6.97917 18.1813 7.92917 18.1813 7.92917 18.1813C8.87917 18.2604 9.39375 19.1708 9.39375 19.1708C10.225 20.6354 11.6104 20.2 12.1646 19.9625C12.2438 19.3292 12.4813 18.9333 12.7583 18.6958C10.6604 18.4583 8.44375 17.6271 8.44375 13.9854C8.44375 12.9563 8.8 12.0854 9.43333 11.4521C9.35417 11.2146 8.99792 10.2646 9.5125 8.91875C9.5125 8.91875 10.3042 8.68125 12.125 9.90833C12.8771 9.71042 13.7083 9.59167 14.5 9.59167C15.2917 9.59167 16.1229 9.71042 16.875 9.90833C18.6958 8.68125 19.4875 8.91875 19.4875 8.91875C20.0021 10.225 19.6854 11.175 19.5667 11.4521C20.1604 12.125 20.5562 12.9563 20.5562 13.9854C20.5562 17.6271 18.3396 18.4188 16.2021 18.6563C16.5583 18.9333 16.8354 19.5271 16.8354 20.3979C16.8354 21.6646 16.8354 22.6938 16.8354 23.0104C16.8354 23.2479 16.9938 23.5646 17.5083 23.4854C21.2688 22.2583 24 18.6958 24 14.5C24 9.23542 19.7646 5 14.5 5Z" fill="#44B7BC"/>
</svg>
