<svg width="28" height="28" viewBox="0 0 28 28" fill="none" xmlns="http://www.w3.org/2000/svg">
<circle cx="14" cy="14" r="14" fill="white"/>
<path d="M23.5169 8.73596C22.8225 9.04457 22.0895 9.23746 21.318 9.35319C22.0895 8.89026 22.7068 8.1573 22.9768 7.27004C22.2438 7.69438 21.4337 8.003 20.5465 8.19588C19.8521 7.46292 18.8491 7 17.7689 7C15.6858 7 13.9884 8.69738 13.9884 10.7805C13.9884 11.0891 14.027 11.3592 14.1041 11.6292C10.9794 11.4749 8.1633 9.97042 6.27303 7.65581C5.96442 8.23446 5.77154 8.85169 5.77154 9.54607C5.77154 10.8577 6.42734 12.015 7.46892 12.7094C6.85169 12.6708 6.27303 12.5165 5.73296 12.2464V12.285C5.73296 14.1367 7.04457 15.6798 8.78053 16.027C8.47191 16.1041 8.12472 16.1427 7.77753 16.1427C7.54607 16.1427 7.27603 16.1041 7.04457 16.0656C7.54607 17.57 8.93483 18.6888 10.5936 18.6888C9.28203 19.6918 7.6618 20.309 5.88727 20.309C5.57865 20.309 5.27004 20.309 5 20.2704C6.69738 21.3506 8.6648 21.9678 10.8251 21.9678C17.8075 21.9678 21.6266 16.1813 21.6266 11.1663C21.6266 11.012 21.6266 10.8191 21.6266 10.6648C22.3596 10.1633 23.0154 9.50749 23.5169 8.73596Z" fill="#44B7BC"/>
</svg>
